<svg width="400" height="400" viewBox="0 0 400 400" fill="none" xmlns="http://www.w3.org/2000/svg">
<rect width="400" height="400" rx="200" fill="url(#paint0_linear_235_4)"/>
<path d="M144.766 216.473L146.408 212.395H160.342L161.984 216.473H144.766ZM141.594 224.629L143.18 220.551H163.514L165.27 224.629H141.594ZM138.422 232.785L140.008 228.707H166.742L168.441 232.785H138.422ZM105.287 244H100.869L137.969 150.203H142.387L179.43 244H175.068L140.178 155.697L105.287 244ZM140.688 165.383L143.01 170.594L114.01 244H109.648L140.688 165.383ZM145.219 176.145L147.371 181.752L122.846 244H118.428L145.219 176.145ZM149.523 187.359L151.676 193.08L131.568 244H127.207L149.523 187.359ZM205.768 244H201.35L164.307 150.203H168.668L205.768 244ZM159.889 150.203L196.988 244H192.627L155.527 150.203H159.889ZM151.109 150.203L188.209 244H183.791L146.748 150.203H151.109ZM277.701 182.262L274.359 184.471C272.32 181.45 269.658 179.071 266.373 177.334C263.126 175.559 259.595 174.672 255.781 174.672C249.589 174.672 244.302 176.862 239.922 181.242C235.542 185.622 233.352 190.909 233.352 197.102C233.352 203.294 235.542 208.581 239.922 212.961C244.302 217.341 249.589 219.531 255.781 219.531C259.595 219.531 263.126 218.644 266.373 216.869C269.658 215.094 272.32 212.697 274.359 209.676L277.645 212.055C275.228 215.604 272.094 218.417 268.242 220.494C264.391 222.571 260.237 223.609 255.781 223.609C252.194 223.609 248.758 222.911 245.473 221.514C242.225 220.117 239.412 218.229 237.033 215.85C234.654 213.471 232.766 210.658 231.369 207.41C229.972 204.125 229.273 200.689 229.273 197.102C229.273 193.514 229.972 190.097 231.369 186.85C232.766 183.564 234.654 180.732 237.033 178.354C239.412 175.975 242.225 174.087 245.473 172.689C248.758 171.292 252.194 170.594 255.781 170.594C260.275 170.594 264.447 171.651 268.299 173.766C272.15 175.842 275.285 178.674 277.701 182.262ZM284.441 177.617L281.043 179.826C278.249 175.748 274.624 172.52 270.168 170.141C265.75 167.724 260.954 166.516 255.781 166.516C250.23 166.516 245.114 167.894 240.432 170.65C235.749 173.369 232.03 177.07 229.273 181.752C226.555 186.434 225.195 191.551 225.195 197.102C225.195 202.652 226.555 207.769 229.273 212.451C232.03 217.133 235.749 220.853 240.432 223.609C245.114 226.328 250.23 227.688 255.781 227.688C260.954 227.688 265.769 226.479 270.225 224.062C274.68 221.646 278.305 218.38 281.1 214.264L284.441 216.586C281.27 221.268 277.154 224.969 272.094 227.688C267.072 230.406 261.634 231.766 255.781 231.766C249.513 231.766 243.717 230.217 238.393 227.121C233.068 224.025 228.858 219.814 225.762 214.49C222.665 209.166 221.117 203.37 221.117 197.102C221.117 190.833 222.665 185.037 225.762 179.713C228.858 174.389 233.068 170.178 238.393 167.082C243.717 163.986 249.513 162.438 255.781 162.438C261.634 162.438 267.072 163.797 272.094 166.516C277.154 169.234 281.27 172.935 284.441 177.617ZM291.238 173.086L287.84 175.295C284.29 170.084 279.684 165.968 274.02 162.947C268.393 159.889 262.314 158.359 255.781 158.359C250.533 158.359 245.51 159.379 240.715 161.418C235.919 163.457 231.785 166.214 228.311 169.688C224.874 173.124 222.137 177.24 220.098 182.035C218.059 186.831 217.039 191.853 217.039 197.102C217.039 202.35 218.059 207.372 220.098 212.168C222.137 216.964 224.874 221.098 228.311 224.572C231.785 228.008 235.919 230.746 240.715 232.785C245.51 234.824 250.533 235.844 255.781 235.844C262.352 235.844 268.45 234.314 274.076 231.256C279.702 228.197 284.29 224.062 287.84 218.852L291.125 221.287C287.198 227.027 282.119 231.577 275.889 234.938C269.696 238.26 262.993 239.922 255.781 239.922C248.04 239.922 240.885 238.015 234.314 234.201C227.744 230.35 222.533 225.139 218.682 218.568C214.868 211.998 212.961 204.842 212.961 197.102C212.961 189.361 214.868 182.205 218.682 175.635C222.533 169.064 227.744 163.872 234.314 160.059C240.885 156.207 248.04 154.281 255.781 154.281C263.031 154.281 269.771 155.98 276.002 159.379C282.232 162.74 287.311 167.309 291.238 173.086ZM297.922 168.441L294.523 170.65C290.219 164.344 284.649 159.36 277.814 155.697C271.018 152.035 263.673 150.203 255.781 150.203C249.438 150.203 243.358 151.449 237.543 153.941C231.766 156.396 226.781 159.719 222.59 163.91C218.398 168.102 215.057 173.105 212.564 178.92C210.11 184.697 208.883 190.758 208.883 197.102C208.883 203.445 210.11 209.525 212.564 215.34C215.057 221.117 218.398 226.102 222.59 230.293C226.781 234.484 231.766 237.826 237.543 240.318C243.358 242.773 249.438 244 255.781 244C263.673 244 271.036 242.15 277.871 238.449C284.706 234.749 290.275 229.745 294.58 223.439L297.865 225.932C293.183 232.729 287.141 238.128 279.74 242.131C272.339 246.096 264.353 248.078 255.781 248.078C248.871 248.078 242.263 246.719 235.957 244C229.689 241.319 224.27 237.713 219.701 233.182C215.17 228.613 211.545 223.194 208.826 216.926C206.145 210.62 204.805 204.012 204.805 197.102C204.805 190.191 206.145 183.602 208.826 177.334C211.545 171.028 215.17 165.609 219.701 161.078C224.27 156.509 229.689 152.884 235.957 150.203C242.263 147.484 248.871 146.125 255.781 146.125C264.391 146.125 272.396 148.126 279.797 152.129C287.198 156.132 293.24 161.569 297.922 168.441Z" fill="#F9FAFE"/>
<defs>
<linearGradient id="paint0_linear_235_4" x1="45.5" y1="112" x2="318.5" y2="272.5" gradientUnits="userSpaceOnUse">
<stop stop-color="#5E94FC"/>
<stop offset="1" stop-color="#111AEC"/>
</linearGradient>
</defs>
</svg>
