<svg width="1024" height="1024" viewBox="0 0 1024 1024" fill="none" xmlns="http://www.w3.org/2000/svg">
<rect width="1024" height="1024" fill="url(#paint0_linear_235_4)"/>
<path d="M321.812 567.078L327.477 553.016H375.523L381.188 567.078H321.812ZM310.875 595.203L316.344 581.141H386.461L392.516 595.203H310.875ZM299.938 623.328L305.406 609.266H397.594L403.453 623.328H299.938ZM185.68 662H170.445L298.375 338.562H313.609L441.344 662H426.305L305.992 357.508L185.68 662ZM307.75 390.906L315.758 408.875L215.758 662H200.719L307.75 390.906ZM323.375 428.016L330.797 447.352L246.227 662H230.992L323.375 428.016ZM338.219 466.688L345.641 486.414L276.305 662H261.266L338.219 466.688ZM532.164 662H516.93L389.195 338.562H404.234L532.164 662ZM373.961 338.562L501.891 662H486.852L358.922 338.562H373.961ZM343.688 338.562L471.617 662H456.383L328.648 338.562H343.688ZM780.211 449.109L768.688 456.727C761.656 446.31 752.477 438.107 741.148 432.117C729.951 425.997 717.776 422.938 704.625 422.938C683.271 422.938 665.042 430.49 649.938 445.594C634.833 460.698 627.281 478.927 627.281 500.281C627.281 521.635 634.833 539.865 649.938 554.969C665.042 570.073 683.271 577.625 704.625 577.625C717.776 577.625 729.951 574.565 741.148 568.445C752.477 562.326 761.656 554.057 768.688 543.641L780.016 551.844C771.682 564.083 760.875 573.784 747.594 580.945C734.312 588.107 719.99 591.688 704.625 591.688C692.255 591.688 680.406 589.279 669.078 584.461C657.88 579.643 648.18 573.133 639.977 564.93C631.773 556.727 625.263 547.026 620.445 535.828C615.628 524.5 613.219 512.651 613.219 500.281C613.219 487.911 615.628 476.128 620.445 464.93C625.263 453.602 631.773 443.836 639.977 435.633C648.18 427.43 657.88 420.919 669.078 416.102C680.406 411.284 692.255 408.875 704.625 408.875C720.12 408.875 734.508 412.521 747.789 419.812C761.07 426.974 771.878 436.74 780.211 449.109ZM803.453 433.094L791.734 440.711C782.099 426.648 769.599 415.516 754.234 407.312C739 398.979 722.464 394.812 704.625 394.812C685.484 394.812 667.841 399.565 651.695 409.07C635.549 418.445 622.724 431.206 613.219 447.352C603.844 463.497 599.156 481.141 599.156 500.281C599.156 519.422 603.844 537.065 613.219 553.211C622.724 569.357 635.549 582.182 651.695 591.688C667.841 601.062 685.484 605.75 704.625 605.75C722.464 605.75 739.065 601.583 754.43 593.25C769.794 584.917 782.294 573.654 791.93 559.461L803.453 567.469C792.516 583.615 778.323 596.375 760.875 605.75C743.557 615.125 724.807 619.812 704.625 619.812C683.01 619.812 663.023 614.474 644.664 603.797C626.305 593.12 611.786 578.602 601.109 560.242C590.432 541.883 585.094 521.896 585.094 500.281C585.094 478.667 590.432 458.68 601.109 440.32C611.786 421.961 626.305 407.443 644.664 396.766C663.023 386.089 683.01 380.75 704.625 380.75C724.807 380.75 743.557 385.438 760.875 394.812C778.323 404.188 792.516 416.948 803.453 433.094ZM826.891 417.469L815.172 425.086C802.932 407.117 787.047 392.924 767.516 382.508C748.115 371.961 727.151 366.688 704.625 366.688C686.526 366.688 669.208 370.203 652.672 377.234C636.135 384.266 621.878 393.771 609.898 405.75C598.049 417.599 588.609 431.792 581.578 448.328C574.547 464.865 571.031 482.182 571.031 500.281C571.031 518.38 574.547 535.698 581.578 552.234C588.609 568.771 598.049 583.029 609.898 595.008C621.878 606.857 636.135 616.297 652.672 623.328C669.208 630.359 686.526 633.875 704.625 633.875C727.281 633.875 748.31 628.602 767.711 618.055C787.112 607.508 802.932 593.25 815.172 575.281L826.5 583.68C812.958 603.471 795.445 619.161 773.961 630.75C752.607 642.208 729.495 647.938 704.625 647.938C677.932 647.938 653.258 641.362 630.602 628.211C607.945 614.93 589.977 596.961 576.695 574.305C563.544 551.648 556.969 526.974 556.969 500.281C556.969 473.589 563.544 448.914 576.695 426.258C589.977 403.602 607.945 385.698 630.602 372.547C653.258 359.266 677.932 352.625 704.625 352.625C729.625 352.625 752.867 358.484 774.352 370.203C795.836 381.792 813.349 397.547 826.891 417.469ZM849.938 401.453L838.219 409.07C823.375 387.326 804.169 370.138 780.602 357.508C757.164 344.878 731.839 338.562 704.625 338.562C682.75 338.562 661.786 342.859 641.734 351.453C621.812 359.917 604.625 371.375 590.172 385.828C575.719 400.281 564.195 417.534 555.602 437.586C547.138 457.508 542.906 478.406 542.906 500.281C542.906 522.156 547.138 543.12 555.602 563.172C564.195 583.094 575.719 600.281 590.172 614.734C604.625 629.188 621.812 640.711 641.734 649.305C661.786 657.768 682.75 662 704.625 662C731.839 662 757.229 655.62 780.797 642.859C804.365 630.099 823.57 612.846 838.414 591.102L849.742 599.695C833.596 623.133 812.763 641.753 787.242 655.555C761.721 669.227 734.182 676.062 704.625 676.062C680.797 676.062 658.01 671.375 636.266 662C614.651 652.755 595.966 640.32 580.211 624.695C564.586 608.94 552.086 590.255 542.711 568.641C533.466 546.896 528.844 524.109 528.844 500.281C528.844 476.453 533.466 453.732 542.711 432.117C552.086 410.372 564.586 391.688 580.211 376.062C595.966 360.307 614.651 347.807 636.266 338.562C658.01 329.188 680.797 324.5 704.625 324.5C734.312 324.5 761.917 331.401 787.438 345.203C812.958 359.005 833.792 377.755 849.938 401.453Z" fill="#F9FAFE"/>
<defs>
<linearGradient id="paint0_linear_235_4" x1="78" y1="121" x2="917.5" y2="718.5" gradientUnits="userSpaceOnUse">
<stop stop-color="#1A44DA"/>
<stop offset="1" stop-color="#5F17D5"/>
</linearGradient>
</defs>
</svg>
